# xmcd
#
# Track frame offsets: 
#        150
#        28367
#        54697
#        75325
#        86485
#        112067
#        129145
#        149390
#        167225
#        187752
#        195162
#
# Disc length: 2900 seconds
#
# Revision: 0
# Processed by: cddbd v1.5.1PL0 Copyright (c) Steve Scherf et al.
# Submitted via: ExactAudioCopy v0.95a5
#
DISCID=890b520b
DTITLE=Robert Allen Parker - Robert Allen Parker
DYEAR=2003
DGENRE=Blues
TTITLE0=Drownin' Man
TTITLE1=Southern Fried Heartbreak
TTITLE2=Belly Dancin' Woman
TTITLE3=Ghost of Beale St.
TTITLE4=Green
TTITLE5=Tell Me
TTITLE6=Black Magic Carpet Ride
TTITLE7=Power Trip
TTITLE8=Find Yourself
TTITLE9=The Free Way
TTITLE10=Silver
EXTD=
EXTT0=
EXTT1=
EXTT2=
EXTT3=
EXTT4=
EXTT5=
EXTT6=
EXTT7=
EXTT8=
EXTT9=
EXTT10=
PLAYORDER=
